<svg width="2062" height="1208" viewBox="0 0 2062 1208" fill="none" xmlns="http://www.w3.org/2000/svg">
<g opacity="0.2" clip-path="url(#clip0_2502_325)">
<path d="M142.097 928C63.5443 928 0 990.649 0 1068.1C0 1145.35 63.5443 1208.19 142.097 1208.19C220.456 1208.19 284.195 1145.54 284.195 1068.1C284 990.649 220.456 928 142.097 928ZM142.097 1199.16C68.6122 1199.16 9.16129 1140.55 9.16129 1068.1C9.16129 995.646 68.6122 937.032 142.097 937.032C215.583 937.032 275.034 995.646 275.034 1068.1C275.034 1140.35 215.388 1199.16 142.097 1199.16Z" fill="white"/>
<path d="M142.099 958.172C80.6986 958.172 30.7988 1007.37 30.7988 1067.9C30.7988 1128.44 80.6986 1177.64 142.099 1177.64C203.499 1177.64 253.399 1128.63 253.399 1068.1C253.399 1007.37 203.499 958.172 142.099 958.172ZM142.099 1160.92C90.0548 1160.92 47.757 1119.22 47.757 1067.9C47.757 1016.59 90.0548 974.891 142.099 974.891C194.143 974.891 236.441 1016.59 236.441 1067.9C236.441 1119.22 194.143 1160.92 142.099 1160.92Z" fill="white"/>
<path d="M142.098 1006.41C107.597 1006.41 79.5283 1034.08 79.5283 1068.1C79.5283 1102.11 107.402 1129.78 142.098 1129.78C176.599 1129.78 204.668 1102.11 204.668 1068.1C204.473 1034.08 176.599 1006.41 142.098 1006.41ZM142.098 1101.15C123.58 1101.15 108.572 1086.35 108.572 1068.1C108.572 1049.84 123.58 1035.04 142.098 1035.04C160.616 1035.04 175.624 1049.84 175.624 1068.1C175.624 1086.35 160.616 1101.15 142.098 1101.15Z" fill="white"/>
</g>
<g opacity="0.8" clip-path="url(#clip1_2502_325)">
<path d="M1880.34 822.677C1880.34 824.174 1879.19 825.297 1877.67 825.297C1876.14 825.297 1875 824.174 1875 822.677C1875 821.18 1876.14 820.057 1877.67 820.057C1879.19 820.057 1880.34 821.304 1880.34 822.677Z" fill="white"/>
<path d="M1903.08 822.677C1903.08 824.174 1901.93 825.297 1900.41 825.297C1898.88 825.297 1897.74 824.174 1897.74 822.677C1897.74 821.18 1898.88 820.057 1900.41 820.057C1901.81 820.057 1903.08 821.304 1903.08 822.677Z" fill="white"/>
<path d="M1925.69 822.677C1925.69 824.174 1924.54 825.297 1923.02 825.297C1921.5 825.297 1920.35 824.174 1920.35 822.677C1920.35 821.18 1921.5 820.057 1923.02 820.057C1924.54 820.057 1925.69 821.304 1925.69 822.677Z" fill="white"/>
<path d="M1948.43 822.677C1948.43 824.174 1947.28 825.297 1945.76 825.297C1944.24 825.297 1943.09 824.174 1943.09 822.677C1943.09 821.18 1944.24 820.057 1945.76 820.057C1947.28 820.057 1948.43 821.304 1948.43 822.677Z" fill="white"/>
<path d="M1971.17 822.677C1971.17 824.174 1970.02 825.297 1968.5 825.297C1966.98 825.297 1965.83 824.174 1965.83 822.677C1965.83 821.18 1966.98 820.057 1968.5 820.057C1969.9 820.057 1971.17 821.304 1971.17 822.677Z" fill="white"/>
<path d="M1993.91 822.677C1993.91 824.174 1992.76 825.297 1991.24 825.297C1989.72 825.297 1988.57 824.174 1988.57 822.677C1988.57 821.18 1989.72 820.057 1991.24 820.057C1992.76 820.057 1993.91 821.304 1993.91 822.677Z" fill="white"/>
<path d="M2016.52 822.677C2016.52 824.174 2015.38 825.297 2013.85 825.297C2012.33 825.297 2011.18 824.174 2011.18 822.677C2011.18 821.18 2012.33 820.057 2013.85 820.057C2015.38 820.057 2016.52 821.304 2016.52 822.677Z" fill="white"/>
<path d="M2039.26 822.677C2039.26 824.174 2038.12 825.297 2036.59 825.297C2035.07 825.297 2033.92 824.174 2033.92 822.677C2033.92 821.18 2035.07 820.057 2036.59 820.057C2038.12 820.057 2039.26 821.304 2039.26 822.677Z" fill="white"/>
<path d="M2062 822.677C2062 824.174 2060.86 825.297 2059.33 825.297C2057.81 825.297 2056.66 824.174 2056.66 822.677C2056.66 821.18 2057.81 820.057 2059.33 820.057C2060.73 820.057 2062 821.304 2062 822.677Z" fill="white"/>
<path d="M1880.34 841.267C1880.34 842.764 1879.19 843.887 1877.67 843.887C1876.14 843.887 1875 842.764 1875 841.267C1875 839.769 1876.14 838.646 1877.67 838.646C1879.19 838.646 1880.34 839.769 1880.34 841.267Z" fill="white"/>
<path d="M1903.08 841.267C1903.08 842.764 1901.93 843.887 1900.41 843.887C1898.88 843.887 1897.74 842.764 1897.74 841.267C1897.74 839.769 1898.88 838.646 1900.41 838.646C1901.81 838.646 1903.08 839.769 1903.08 841.267Z" fill="white"/>
<path d="M1925.69 841.267C1925.69 842.764 1924.54 843.887 1923.02 843.887C1921.5 843.887 1920.35 842.764 1920.35 841.267C1920.35 839.769 1921.5 838.646 1923.02 838.646C1924.54 838.646 1925.69 839.769 1925.69 841.267Z" fill="white"/>
<path d="M1948.43 841.267C1948.43 842.764 1947.28 843.887 1945.76 843.887C1944.24 843.887 1943.09 842.764 1943.09 841.267C1943.09 839.769 1944.24 838.646 1945.76 838.646C1947.28 838.646 1948.43 839.769 1948.43 841.267Z" fill="white"/>
<path d="M1971.17 841.267C1971.17 842.764 1970.02 843.887 1968.5 843.887C1966.98 843.887 1965.83 842.764 1965.83 841.267C1965.83 839.769 1966.98 838.646 1968.5 838.646C1969.9 838.646 1971.17 839.769 1971.17 841.267Z" fill="white"/>
<path d="M1993.91 841.267C1993.91 842.764 1992.76 843.887 1991.24 843.887C1989.72 843.887 1988.57 842.764 1988.57 841.267C1988.57 839.769 1989.72 838.646 1991.24 838.646C1992.76 838.646 1993.91 839.769 1993.91 841.267Z" fill="white"/>
<path d="M2016.52 841.267C2016.52 842.764 2015.38 843.887 2013.85 843.887C2012.33 843.887 2011.18 842.764 2011.18 841.267C2011.18 839.769 2012.33 838.646 2013.85 838.646C2015.38 838.646 2016.52 839.769 2016.52 841.267Z" fill="white"/>
<path d="M2039.26 841.267C2039.26 842.764 2038.12 843.887 2036.59 843.887C2035.07 843.887 2033.92 842.764 2033.92 841.267C2033.92 839.769 2035.07 838.646 2036.59 838.646C2038.12 838.646 2039.26 839.769 2039.26 841.267Z" fill="white"/>
<path d="M2062 841.267C2062 842.764 2060.86 843.887 2059.33 843.887C2057.81 843.887 2056.66 842.764 2056.66 841.267C2056.66 839.769 2057.81 838.646 2059.33 838.646C2060.73 838.646 2062 839.769 2062 841.267Z" fill="white"/>
<path d="M1880.34 785.62C1880.34 787.117 1879.19 788.24 1877.67 788.24C1876.14 788.24 1875 787.117 1875 785.62C1875 784.123 1876.14 783 1877.67 783C1879.19 783 1880.34 784.123 1880.34 785.62Z" fill="white"/>
<path d="M1903.08 785.62C1903.08 787.117 1901.93 788.24 1900.41 788.24C1898.88 788.24 1897.74 787.117 1897.74 785.62C1897.74 784.123 1898.88 783 1900.41 783C1901.81 783 1903.08 784.123 1903.08 785.62Z" fill="white"/>
<path d="M1925.69 785.62C1925.69 787.117 1924.54 788.24 1923.02 788.24C1921.5 788.24 1920.35 787.117 1920.35 785.62C1920.35 784.123 1921.62 783 1923.02 783C1924.54 783 1925.69 784.123 1925.69 785.62Z" fill="white"/>
<path d="M1948.43 785.62C1948.43 787.117 1947.28 788.24 1945.76 788.24C1944.24 788.24 1943.09 787.117 1943.09 785.62C1943.09 784.123 1944.36 783 1945.76 783C1947.16 783 1948.43 784.123 1948.43 785.62Z" fill="white"/>
<path d="M1971.17 785.62C1971.17 787.117 1970.02 788.24 1968.5 788.24C1966.98 788.24 1965.83 787.117 1965.83 785.62C1965.83 784.123 1966.98 783 1968.5 783C1969.9 783 1971.17 784.123 1971.17 785.62Z" fill="white"/>
<path d="M1993.91 785.62C1993.91 787.117 1992.76 788.24 1991.24 788.24C1989.72 788.24 1988.57 787.117 1988.57 785.62C1988.57 784.123 1989.72 783 1991.24 783C1992.76 783 1993.91 784.123 1993.91 785.62Z" fill="white"/>
<path d="M2016.52 785.62C2016.52 787.117 2015.38 788.24 2013.85 788.24C2012.33 788.24 2011.18 787.117 2011.18 785.62C2011.18 784.123 2012.33 783 2013.85 783C2015.38 783 2016.52 784.123 2016.52 785.62Z" fill="white"/>
<path d="M2039.26 785.62C2039.26 787.117 2038.12 788.24 2036.59 788.24C2035.07 788.24 2033.92 787.117 2033.92 785.62C2033.92 784.123 2035.07 783 2036.59 783C2038.12 783 2039.26 784.123 2039.26 785.62Z" fill="white"/>
<path d="M2062 785.62C2062 787.117 2060.86 788.24 2059.33 788.24C2057.81 788.24 2056.66 787.117 2056.66 785.62C2056.66 784.123 2057.81 783 2059.33 783C2060.73 783 2062 784.123 2062 785.62Z" fill="white"/>
<path d="M1880.34 804.211C1880.34 805.708 1879.19 806.831 1877.67 806.831C1876.14 806.831 1875 805.583 1875 804.211C1875 802.714 1876.14 801.591 1877.67 801.591C1879.19 801.591 1880.34 802.714 1880.34 804.211Z" fill="white"/>
<path d="M1903.08 804.211C1903.08 805.708 1901.93 806.831 1900.41 806.831C1898.88 806.831 1897.74 805.708 1897.74 804.211C1897.74 802.714 1898.88 801.591 1900.41 801.591C1901.81 801.591 1903.08 802.714 1903.08 804.211Z" fill="white"/>
<path d="M1925.69 804.211C1925.69 805.708 1924.54 806.831 1923.02 806.831C1921.5 806.831 1920.35 805.708 1920.35 804.211C1920.35 802.714 1921.5 801.591 1923.02 801.591C1924.54 801.591 1925.69 802.714 1925.69 804.211Z" fill="white"/>
<path d="M1948.43 804.211C1948.43 805.708 1947.28 806.831 1945.76 806.831C1944.24 806.831 1943.09 805.708 1943.09 804.211C1943.09 802.714 1944.24 801.591 1945.76 801.591C1947.28 801.591 1948.43 802.714 1948.43 804.211Z" fill="white"/>
<path d="M1971.17 804.211C1971.17 805.708 1970.02 806.831 1968.5 806.831C1966.98 806.831 1965.83 805.708 1965.83 804.211C1965.83 802.714 1966.98 801.591 1968.5 801.591C1969.9 801.591 1971.17 802.714 1971.17 804.211Z" fill="white"/>
<path d="M1993.91 804.211C1993.91 805.708 1992.76 806.831 1991.24 806.831C1989.72 806.831 1988.57 805.708 1988.57 804.211C1988.57 802.714 1989.72 801.591 1991.24 801.591C1992.76 801.591 1993.91 802.714 1993.91 804.211Z" fill="white"/>
<path d="M2016.52 804.211C2016.52 805.708 2015.38 806.831 2013.85 806.831C2012.33 806.831 2011.18 805.708 2011.18 804.211C2011.18 802.714 2012.33 801.591 2013.85 801.591C2015.38 801.591 2016.52 802.714 2016.52 804.211Z" fill="white"/>
<path d="M2039.26 804.211C2039.26 805.708 2038.12 806.831 2036.59 806.831C2035.07 806.831 2033.92 805.708 2033.92 804.211C2033.92 802.714 2035.07 801.591 2036.59 801.591C2038.12 801.591 2039.26 802.714 2039.26 804.211Z" fill="white"/>
<path d="M2062 804.211C2062 805.708 2060.86 806.831 2059.33 806.831C2057.81 806.831 2056.66 805.708 2056.66 804.211C2056.66 802.714 2057.81 801.591 2059.33 801.591C2060.73 801.591 2062 802.714 2062 804.211Z" fill="white"/>
<path d="M1880.34 859.733C1880.34 861.231 1879.19 862.354 1877.67 862.354C1876.14 862.354 1875 861.231 1875 859.733C1875 858.236 1876.14 857.113 1877.67 857.113C1879.19 857.113 1880.34 858.361 1880.34 859.733Z" fill="white"/>
<path d="M1903.08 859.733C1903.08 861.231 1901.93 862.354 1900.41 862.354C1898.88 862.354 1897.74 861.231 1897.74 859.733C1897.74 858.236 1898.88 857.113 1900.41 857.113C1901.81 857.113 1903.08 858.361 1903.08 859.733Z" fill="white"/>
<path d="M1925.69 859.733C1925.69 861.231 1924.54 862.354 1923.02 862.354C1921.5 862.354 1920.35 861.231 1920.35 859.733C1920.35 858.236 1921.5 857.113 1923.02 857.113C1924.54 857.113 1925.69 858.361 1925.69 859.733Z" fill="white"/>
<path d="M1948.43 859.733C1948.43 861.231 1947.28 862.354 1945.76 862.354C1944.24 862.354 1943.09 861.231 1943.09 859.733C1943.09 858.236 1944.24 857.113 1945.76 857.113C1947.28 857.113 1948.43 858.361 1948.43 859.733Z" fill="white"/>
<path d="M1971.17 859.733C1971.17 861.231 1970.02 862.354 1968.5 862.354C1966.98 862.354 1965.83 861.231 1965.83 859.733C1965.83 858.236 1966.98 857.113 1968.5 857.113C1969.9 857.113 1971.17 858.361 1971.17 859.733Z" fill="white"/>
<path d="M1993.91 859.733C1993.91 861.231 1992.76 862.354 1991.24 862.354C1989.72 862.354 1988.57 861.231 1988.57 859.733C1988.57 858.236 1989.72 857.113 1991.24 857.113C1992.76 857.113 1993.91 858.361 1993.91 859.733Z" fill="white"/>
<path d="M2016.52 859.733C2016.52 861.231 2015.38 862.354 2013.85 862.354C2012.33 862.354 2011.18 861.231 2011.18 859.733C2011.18 858.236 2012.33 857.113 2013.85 857.113C2015.38 857.113 2016.52 858.361 2016.52 859.733Z" fill="white"/>
<path d="M2039.26 859.733C2039.26 861.231 2038.12 862.354 2036.59 862.354C2035.07 862.354 2033.92 861.231 2033.92 859.733C2033.92 858.236 2035.07 857.113 2036.59 857.113C2038.12 857.113 2039.26 858.361 2039.26 859.733Z" fill="white"/>
<path d="M2062 859.733C2062 861.231 2060.86 862.354 2059.33 862.354C2057.81 862.354 2056.66 861.231 2056.66 859.733C2056.66 858.236 2057.81 857.113 2059.33 857.113C2060.73 857.113 2062 858.361 2062 859.733Z" fill="white"/>
<path d="M1880.34 878.323C1880.34 879.82 1879.19 880.943 1877.67 880.943C1876.14 880.943 1875 879.82 1875 878.323C1875 876.826 1876.14 875.703 1877.67 875.703C1879.19 875.703 1880.34 876.826 1880.34 878.323Z" fill="white"/>
<path d="M1903.08 878.323C1903.08 879.82 1901.93 880.943 1900.41 880.943C1898.88 880.943 1897.74 879.82 1897.74 878.323C1897.74 876.826 1898.88 875.703 1900.41 875.703C1901.81 875.703 1903.08 876.826 1903.08 878.323Z" fill="white"/>
<path d="M1925.69 878.323C1925.69 879.82 1924.54 880.943 1923.02 880.943C1921.5 880.943 1920.35 879.82 1920.35 878.323C1920.35 876.826 1921.5 875.703 1923.02 875.703C1924.54 875.703 1925.69 876.826 1925.69 878.323Z" fill="white"/>
<path d="M1945.76 880.943C1947.23 880.943 1948.43 879.77 1948.43 878.323C1948.43 876.876 1947.23 875.703 1945.76 875.703C1944.29 875.703 1943.09 876.876 1943.09 878.323C1943.09 879.77 1944.29 880.943 1945.76 880.943Z" fill="white"/>
<path d="M1971.17 878.323C1971.17 879.82 1970.02 880.943 1968.5 880.943C1966.98 880.943 1965.83 879.82 1965.83 878.323C1965.83 876.826 1966.98 875.703 1968.5 875.703C1969.9 875.703 1971.17 876.826 1971.17 878.323Z" fill="white"/>
<path d="M1993.91 878.323C1993.91 879.82 1992.76 880.943 1991.24 880.943C1989.72 880.943 1988.57 879.82 1988.57 878.323C1988.57 876.826 1989.72 875.703 1991.24 875.703C1992.76 875.703 1993.91 876.826 1993.91 878.323Z" fill="white"/>
<path d="M2016.52 878.323C2016.52 879.82 2015.38 880.943 2013.85 880.943C2012.33 880.943 2011.18 879.82 2011.18 878.323C2011.18 876.826 2012.33 875.703 2013.85 875.703C2015.38 875.703 2016.52 876.826 2016.52 878.323Z" fill="white"/>
<path d="M2036.59 880.943C2038.07 880.943 2039.26 879.77 2039.26 878.323C2039.26 876.876 2038.07 875.703 2036.59 875.703C2035.12 875.703 2033.92 876.876 2033.92 878.323C2033.92 879.77 2035.12 880.943 2036.59 880.943Z" fill="white"/>
<path d="M2062 878.323C2062 879.82 2060.86 880.943 2059.33 880.943C2057.81 880.943 2056.66 879.82 2056.66 878.323C2056.66 876.826 2057.81 875.703 2059.33 875.703C2060.73 875.703 2062 876.826 2062 878.323Z" fill="white"/>
<path d="M1880.34 896.914C1880.34 898.411 1879.19 899.534 1877.67 899.534C1876.14 899.534 1875 898.411 1875 896.914C1875 895.417 1876.14 894.294 1877.67 894.294C1879.19 894.294 1880.34 895.417 1880.34 896.914Z" fill="white"/>
<path d="M1903.08 896.914C1903.08 898.411 1901.93 899.534 1900.41 899.534C1898.88 899.534 1897.74 898.411 1897.74 896.914C1897.74 895.417 1898.88 894.294 1900.41 894.294C1901.81 894.294 1903.08 895.417 1903.08 896.914Z" fill="white"/>
<path d="M1925.69 896.914C1925.69 898.411 1924.54 899.534 1923.02 899.534C1921.5 899.534 1920.35 898.411 1920.35 896.914C1920.35 895.417 1921.5 894.294 1923.02 894.294C1924.54 894.294 1925.69 895.417 1925.69 896.914Z" fill="white"/>
<path d="M1948.43 896.914C1948.43 898.411 1947.28 899.534 1945.76 899.534C1944.24 899.534 1943.09 898.411 1943.09 896.914C1943.09 895.417 1944.24 894.294 1945.76 894.294C1947.28 894.294 1948.43 895.417 1948.43 896.914Z" fill="white"/>
<path d="M1971.17 896.914C1971.17 898.411 1970.02 899.534 1968.5 899.534C1966.98 899.534 1965.83 898.411 1965.83 896.914C1965.83 895.417 1966.98 894.294 1968.5 894.294C1969.9 894.294 1971.17 895.417 1971.17 896.914Z" fill="white"/>
<path d="M1993.91 896.914C1993.91 898.411 1992.76 899.534 1991.24 899.534C1989.72 899.534 1988.57 898.411 1988.57 896.914C1988.57 895.417 1989.72 894.294 1991.24 894.294C1992.76 894.294 1993.91 895.417 1993.91 896.914Z" fill="white"/>
<path d="M2016.52 896.914C2016.52 898.411 2015.38 899.534 2013.85 899.534C2012.33 899.534 2011.18 898.411 2011.18 896.914C2011.18 895.417 2012.33 894.294 2013.85 894.294C2015.38 894.294 2016.52 895.417 2016.52 896.914Z" fill="white"/>
<path d="M2039.26 896.914C2039.26 898.411 2038.12 899.534 2036.59 899.534C2035.07 899.534 2033.92 898.411 2033.92 896.914C2033.92 895.417 2035.07 894.294 2036.59 894.294C2038.12 894.294 2039.26 895.417 2039.26 896.914Z" fill="white"/>
<path d="M2062 896.914C2062 898.411 2060.86 899.534 2059.33 899.534C2057.81 899.534 2056.66 898.411 2056.66 896.914C2056.66 895.417 2057.81 894.294 2059.33 894.294C2060.73 894.294 2062 895.417 2062 896.914Z" fill="white"/>
<path d="M1880.34 915.38C1880.34 916.877 1879.19 918 1877.67 918C1876.14 918 1875 916.877 1875 915.38C1875 913.883 1876.14 912.76 1877.67 912.76C1879.19 912.76 1880.34 914.007 1880.34 915.38Z" fill="white"/>
<path d="M1903.08 915.38C1903.08 916.877 1901.93 918 1900.41 918C1898.88 918 1897.74 916.877 1897.74 915.38C1897.74 913.883 1898.88 912.76 1900.41 912.76C1901.81 912.76 1903.08 914.007 1903.08 915.38Z" fill="white"/>
<path d="M1925.69 915.38C1925.69 916.877 1924.54 918 1923.02 918C1921.5 918 1920.35 916.877 1920.35 915.38C1920.35 913.883 1921.5 912.76 1923.02 912.76C1924.54 912.76 1925.69 914.007 1925.69 915.38Z" fill="white"/>
<path d="M1948.43 915.38C1948.43 916.877 1947.28 918 1945.76 918C1944.24 918 1943.09 916.877 1943.09 915.38C1943.09 913.883 1944.24 912.76 1945.76 912.76C1947.28 912.76 1948.43 914.007 1948.43 915.38Z" fill="white"/>
<path d="M1971.17 915.38C1971.17 916.877 1970.02 918 1968.5 918C1966.98 918 1965.83 916.877 1965.83 915.38C1965.83 913.883 1966.98 912.76 1968.5 912.76C1969.9 912.76 1971.17 914.007 1971.17 915.38Z" fill="white"/>
<path d="M1993.91 915.38C1993.91 916.877 1992.76 918 1991.24 918C1989.72 918 1988.57 916.877 1988.57 915.38C1988.57 913.883 1989.72 912.76 1991.24 912.76C1992.76 912.76 1993.91 914.007 1993.91 915.38Z" fill="white"/>
<path d="M2016.52 915.38C2016.52 916.877 2015.38 918 2013.85 918C2012.33 918 2011.18 916.877 2011.18 915.38C2011.18 913.883 2012.33 912.76 2013.85 912.76C2015.38 912.76 2016.52 914.007 2016.52 915.38Z" fill="white"/>
<path d="M2039.26 915.38C2039.26 916.877 2038.12 918 2036.59 918C2035.07 918 2033.92 916.877 2033.92 915.38C2033.92 913.883 2035.07 912.76 2036.59 912.76C2038.12 912.76 2039.26 914.007 2039.26 915.38Z" fill="white"/>
<path d="M2062 915.38C2062 916.877 2060.86 918 2059.33 918C2057.81 918 2056.66 916.877 2056.66 915.38C2056.66 913.883 2057.81 912.76 2059.33 912.76C2060.73 912.76 2062 914.007 2062 915.38Z" fill="white"/>
</g>
<g opacity="0.3">
<path d="M1873.81 118.553L1883.47 128.078L1857.78 153.405L1832.1 128.078L1841.68 118.626L1857.71 134.428L1873.81 118.553Z" fill="white"/>
<path d="M1873.81 84.3523L1883.39 93.8048L1857.71 119.132L1832.1 93.877L1841.76 84.3523L1857.78 100.155L1873.81 84.3523Z" fill="white"/>
<path d="M1873.73 50.0778L1883.39 59.6024L1857.78 84.8572L1832.1 59.5303L1841.68 50.0778L1857.71 65.8801L1873.73 50.0778Z" fill="white"/>
<path d="M1873.81 15.8025L1883.47 25.3272L1857.78 50.6541L1832.1 25.3271L1841.76 15.8025L1857.78 31.6048L1873.81 15.8025Z" fill="white"/>
</g>
<path opacity="0.3" d="M906 841.724C892.071 855.425 869.377 855.425 855.447 841.724C841.518 828.023 841.518 805.701 855.447 792L906 841.724Z" fill="white"/>
<g opacity="0.3">
<path d="M960.486 566.978C971.205 566.978 979.937 558.438 979.937 547.954C979.937 537.471 971.205 528.931 960.486 528.931L960.486 566.978Z" fill="white"/>
<path d="M930.141 566.978C940.861 566.978 949.592 558.438 949.592 547.954C949.592 537.471 940.861 528.931 930.141 528.931L930.141 566.978Z" fill="white"/>
<path d="M899.797 566.978C910.516 566.978 919.248 558.438 919.248 547.954C919.248 537.471 910.516 528.931 899.797 528.931L899.797 566.978Z" fill="white"/>
</g>
<g opacity="0.3">
<path d="M258.301 187.287L258.301 175.531L290 175.531L290 206.79L278.169 206.79L278.169 187.287L258.301 187.287Z" fill="white"/>
<path d="M236.899 208.393L236.899 196.727L268.598 196.727L268.598 227.896L256.677 227.896L256.677 208.393L236.899 208.393Z" fill="white"/>
<path d="M215.495 229.588L215.495 217.833L247.104 217.833L247.104 249.092L235.273 249.092L235.273 229.588L215.495 229.588Z" fill="white"/>
<path d="M194 250.695L194 238.939L225.699 238.939L225.699 270.198L213.778 270.198L213.778 250.695L194 250.695Z" fill="white"/>
</g>
<defs>
<clipPath id="clip0_2502_325">
<rect width="284" height="280" fill="white" transform="translate(0 928)"/>
</clipPath>
<clipPath id="clip1_2502_325">
<rect width="187" height="135" fill="white" transform="translate(1875 783)"/>
</clipPath>
</defs>
</svg>
